<?xml version="1.0" encoding="utf-8"?>
<!-- Generator: Adobe Illustrator 25.0.0, SVG Export Plug-In . SVG Version: 6.00 Build 0)  -->
<svg version="1.1" id="图层_1" xmlns="http://www.w3.org/2000/svg" xmlns:xlink="http://www.w3.org/1999/xlink" x="0px" y="0px"
	 viewBox="0 0 115.7 30.1" style="enable-background:new 0 0 115.7 30.1;" xml:space="preserve">
<style type="text/css">
	.st0{fill:#FFFFFF;}
</style>
<g>
	<g>
		<path class="st0" d="M7.6,15.4V21H4.8v-5.6L0.4,6.5h3l2.9,6.2l2.9-6.2h3L7.6,15.4z"/>
		<path class="st0" d="M17.5,6.5h1.8L25,21h-3l-3.6-9.9L14.8,21h-3L17.5,6.5z M14.5,16h7.9v2.6h-7.9V16z"/>
		<path class="st0" d="M25.3,22.6h0.7c0.3,0,0.5-0.1,0.6-0.2c0.1-0.1,0.2-0.3,0.2-0.6V10.7h2.8v11.8c0,0.9-0.2,1.5-0.7,2
			c-0.5,0.5-1.1,0.7-2,0.7h-1.6V22.6z M26.7,6.5h2.9v2.7h-2.9V6.5z"/>
		<path class="st0" d="M32.2,6.5h2.8v2.7h-2.8V6.5z M32.2,10.7h2.8V21h-2.8V10.7z"/>
		<path class="st0" d="M37.7,10.7h2.8V21h-2.8V10.7z M43.9,14.7c0-0.5-0.1-0.9-0.4-1.2c-0.3-0.3-0.7-0.4-1.3-0.4
			c-0.5,0-0.9,0.1-1.2,0.4c-0.3,0.3-0.4,0.7-0.4,1.2l-0.2-2.3c0.3-0.6,0.7-1.1,1.2-1.5c0.5-0.3,1-0.5,1.7-0.5c1.1,0,2,0.4,2.6,1.1
			s0.9,1.8,0.9,3.1V21h-2.8V14.7z"/>
		<path class="st0" d="M50.9,20.6c-0.5-0.4-1-0.9-1.2-1.5c-0.3-0.7-0.4-1.5-0.4-2.4V15c0-0.9,0.1-1.8,0.4-2.4
			c0.3-0.7,0.7-1.2,1.2-1.5s1.2-0.5,1.9-0.5c0.6,0,1.1,0.2,1.6,0.5c0.5,0.3,0.9,0.8,1.1,1.4l-0.2,2.3c0-0.4-0.1-0.6-0.2-0.9
			s-0.3-0.4-0.5-0.6C54.3,13.1,54,13,53.7,13c-0.5,0-0.9,0.2-1.2,0.5S52,14.4,52,15v1.6c0,0.6,0.1,1.1,0.4,1.4s0.7,0.5,1.2,0.5
			c0.3,0,0.6-0.1,0.9-0.2s0.4-0.3,0.5-0.5s0.2-0.5,0.2-0.9l0.1,2.4c-0.2,0.6-0.6,1-1,1.3c-0.5,0.3-1,0.5-1.6,0.5
			C52,21.1,51.4,21,50.9,20.6z M51,24.7c-0.7-0.3-1.2-0.7-1.6-1.2l1.9-1.7c0.2,0.3,0.5,0.4,0.9,0.6c0.3,0.1,0.7,0.2,1.1,0.2
			c0.6,0,1.1-0.2,1.5-0.5s0.6-0.7,0.6-1.3V10.7h2.8v10c0,0.9-0.2,1.8-0.6,2.4s-0.9,1.2-1.6,1.5c-0.7,0.4-1.6,0.5-2.6,0.5
			C52.5,25.2,51.7,25,51,24.7z"/>
		<path class="st0" d="M73,6.5h2.3l2.9,9.6l1.9-9.6H83L79.5,21h-2.7l-2.7-10.1L71.4,21h-2.7L65.3,6.5h2.9l1.9,9.6L73,6.5z"/>
		<path class="st0" d="M84.9,20.3C84.3,19.8,84,19,84,17.9c0-1,0.3-1.8,1-2.3c0.6-0.5,1.6-0.8,2.9-0.8h2.7l0.1,2.1h-2.8
			c-0.4,0-0.7,0.1-1,0.2c-0.2,0.2-0.3,0.4-0.3,0.7c0,0.3,0.1,0.6,0.4,0.8c0.3,0.2,0.7,0.2,1.2,0.2c0.8,0,1.3-0.1,1.7-0.2
			c0.4-0.2,0.6-0.4,0.6-0.8l0.2,1.5c0,0.4-0.2,0.7-0.5,0.9s-0.7,0.5-1.2,0.6s-1,0.2-1.5,0.2C86.3,21.1,85.4,20.9,84.9,20.3z
			 M90.4,14.4c0-0.5-0.2-0.8-0.5-1.1c-0.3-0.3-0.8-0.4-1.4-0.4c-0.4,0-0.8,0.1-1.2,0.2s-0.7,0.3-1,0.5L84.5,12
			c0.4-0.5,1-0.8,1.7-1.1c0.7-0.3,1.5-0.4,2.3-0.4c0.9,0,1.7,0.2,2.4,0.5c0.7,0.3,1.2,0.7,1.5,1.3c0.3,0.6,0.5,1.3,0.5,2.1V21h-2.6
			V14.4z"/>
		<path class="st0" d="M95.8,10.7h2.8V21h-2.8V10.7z M102,14.7c0-0.5-0.1-0.9-0.4-1.2c-0.3-0.3-0.7-0.4-1.3-0.4
			c-0.5,0-0.9,0.1-1.2,0.4c-0.3,0.3-0.4,0.7-0.4,1.2l-0.2-2.3c0.3-0.6,0.7-1.1,1.2-1.5c0.5-0.3,1-0.5,1.7-0.5c1.1,0,2,0.4,2.6,1.1
			s0.9,1.8,0.9,3.1V21H102V14.7z"/>
		<path class="st0" d="M109,20.6c-0.5-0.4-1-0.9-1.2-1.5c-0.3-0.7-0.4-1.5-0.4-2.4V15c0-0.9,0.1-1.8,0.4-2.4s0.7-1.2,1.2-1.5
			c0.5-0.4,1.2-0.5,1.9-0.5c0.6,0,1.1,0.2,1.6,0.5c0.5,0.3,0.9,0.8,1.1,1.4l-0.2,2.3c0-0.4-0.1-0.6-0.2-0.9s-0.3-0.4-0.5-0.6
			c-0.2-0.1-0.5-0.2-0.9-0.2c-0.5,0-0.9,0.2-1.2,0.5c-0.3,0.3-0.4,0.8-0.4,1.5v1.6c0,0.6,0.1,1.1,0.4,1.4c0.3,0.3,0.7,0.5,1.2,0.5
			c0.3,0,0.6-0.1,0.9-0.2s0.4-0.3,0.5-0.5s0.2-0.5,0.2-0.9l0.1,2.4c-0.2,0.6-0.6,1-1,1.3c-0.5,0.3-1,0.5-1.6,0.5
			C110.2,21.1,109.5,21,109,20.6z M109.1,24.7c-0.7-0.3-1.2-0.7-1.6-1.2l1.9-1.7c0.2,0.3,0.5,0.4,0.9,0.6c0.3,0.1,0.7,0.2,1.1,0.2
			c0.6,0,1.1-0.2,1.5-0.5c0.4-0.3,0.6-0.7,0.6-1.3V10.7h2.8v10c0,0.9-0.2,1.8-0.6,2.4c-0.4,0.7-0.9,1.2-1.6,1.5
			c-0.7,0.4-1.6,0.5-2.6,0.5C110.6,25.2,109.8,25,109.1,24.7z"/>
	</g>
</g>
</svg>
